<?xml version="1.0" encoding="utf-8"?>
<!-- Svg Vector Icons : http://www.onlinewebfonts.com/icon -->
<!DOCTYPE svg PUBLIC "-//W3C//DTD SVG 1.1//EN" "http://www.w3.org/Graphics/SVG/1.1/DTD/svg11.dtd">
<svg version="1.1" xmlns="http://www.w3.org/2000/svg" xmlns:xlink="http://www.w3.org/1999/xlink" x="0px" y="0px" viewBox="0 0 1000 1000" enable-background="new 0 0 1000 1000" xml:space="preserve">
<metadata> Svg Vector Icons : http://www.onlinewebfonts.com/icon </metadata>
<g><g transform="translate(0.000000,512.000000) scale(0.100000,-0.100000)"><path d="M4552.5,5004.7c-946.8-88.2-1886-469.6-2627.7-1065.6C431.8,2733.5-225.6,749.8,255.4-1111.2c90.1-345,178.3-580.7,358.4-944.9C1635.4-4135.7,3998.6-5214.7,6243-4624.4c352.6,93.9,573.1,176.3,935.3,354.6c507.9,249.2,912.3,540.5,1309,943c772.4,782,1228.6,1726.9,1387.6,2861.5c40.2,289.4,30.7,985.1-19.2,1303.3c-82.4,530.9-218.5,958.3-463.8,1456.6c-477.2,971.7-1238.1,1732.6-2211.8,2213.7c-364.2,180.2-596.1,266.4-939.1,354.6C5668,5008.5,5104.5,5056.4,4552.5,5004.7z M5654.6,4652c484.9-70.9,921.9-210.8,1389.6-440.8c488.7-241.5,851-506,1240-906.6c565.4-582.7,956.4-1280.3,1155.7-2062.3C9760-16.9,9530-1337.4,8805.5-2424.1c-1289.9-1930-3821.7-2587.4-5891.7-1527.5c-437,222.3-759,458.1-1132.7,831.8c-400.6,396.7-649.7,745.6-889.3,1236.2c-214.7,437-354.6,889.3-423.6,1360.8c-47.9,322-47.9,969.8,0,1284.1c74.7,502.2,210.8,931.5,442.7,1399.1c241.5,486.8,502.2,845.2,904.6,1238.1c745.6,728.3,1701.9,1173,2765.7,1282.2C4817,4705.7,5397.7,4688.4,5654.6,4652z"/><path d="M4332.1,4163.3C3289.5,3986.9,2344.6,3412,1717.8,2570.6c-162.9-216.6-178.3-274.1-97.7-352.7c90.1-92,155.2-57.5,325.8,176.3c594.2,812.6,1567.8,1385.7,2551,1500.7c304.7,34.5,310.5,36.4,352.7,90.1c47.9,63.2,47.9,103.5-1.9,166.7c-36.4,46-49.8,49.8-176.3,47.9C4594.7,4199.7,4443.3,4182.4,4332.1,4163.3z"/><path d="M4638.7,3567.2c-632.5-61.3-1324.4-350.7-1830.4-764.7c-260.7-212.7-624.8-622.9-699.6-787.7c-47.9-107.3,72.8-224.2,182.1-174.4c24.9,11.5,93.9,88.2,153.3,170.6c61.3,82.4,210.8,249.2,333.5,369.9c511.7,509.8,1161.5,818.4,1889.8,898.9c149.5,17.2,178.2,26.8,216.6,69c47.9,55.6,51.8,82.4,21.1,151.4C4874.5,3565.3,4807.4,3582.6,4638.7,3567.2z"/><path d="M4523.8,2879.1c-387.2-69-749.4-214.7-1079.1-433.2c-348.8-233.8-780.1-697.6-780.1-839.5c0-95.8,92-161,180.2-126.5c24.9,9.6,93.9,80.5,153.3,159.1c59.4,80.5,180.2,212.7,266.4,295.2c417.8,392.9,918.1,624.8,1487.3,688.1c143.7,15.3,193.6,53.7,193.6,149.5c0,47.9-13.4,76.7-49.8,105.4C4834.2,2925.1,4788.2,2925.1,4523.8,2879.1z"/><path d="M4638.7,1930.4c-682.3-145.7-1203.6-626.7-1410.6-1303.3c-49.8-159.1-53.7-199.3-53.7-498.3c-1.9-254.9,5.7-352.7,32.6-446.6c184-667,638.2-1138.5,1289.9-1337.8c157.2-49.8,197.4-53.7,496.4-53.7c283.6-1.9,345,3.8,475.3,42.2c222.3,63.2,368,130.3,550.1,247.3c360.3,233.8,626.7,596.1,760.9,1035c46,153.3,51.8,197.4,51.8,494.5c1.9,283.7-3.8,345-42.2,475.3c-63.3,220.4-130.3,368-247.3,550.1c-237.6,364.2-596.1,628.6-1033.1,759c-145.7,44.1-214.6,51.7-458.1,57.5C4855.3,1955.3,4723.1,1949.6,4638.7,1930.4z M5236.7,1650.6c609.5-93.9,1090.5-527.1,1265-1138.5c61.3-218.5,61.3-567.3,0-785.8c-243.4-854.8-1090.6-1334-1931.9-1092.5c-730.2,210.8-1211.3,948.7-1102.1,1692.4C3594.2,1190.6,4383.8,1782.8,5236.7,1650.6z"/><path d="M4822.7,885.9C4602.3,830.3,4393.4,652,4288,429.7c-55.6-116.9-61.3-145.7-61.3-310.5c0-164.8,5.7-193.6,61.3-310.5c191.7-404.4,647.8-580.7,1035-400.6C5717.8-405.9,5892.2,56,5714,439.3c-126.5,268.3-381.4,442.7-665.1,456.2C4964.6,901.2,4864.9,895.5,4822.7,885.9z M5280.8,694.2c120.8-59.4,237.6-176.3,299-297.1c38.3-80.5,46-122.7,46-277.9c0-212.8-40.3-320.1-172.5-450.4c-130.3-132.3-237.7-172.5-450.4-172.5c-155.2,0-197.4,7.7-277.9,46c-214.7,107.3-339.2,299-350.7,542.4c-15.3,299,138,534.7,414,638.2C4903.2,767,5163.9,751.7,5280.8,694.2z"/><path d="M7145.7-1241.6c-17.2-11.5-86.2-90.1-155.2-178.2c-423.6-542.4-1044.6-887.4-1736.5-964.1c-143.8-15.3-193.6-53.7-193.6-149.5c0-49.8,13.4-76.7,51.8-107.3c47.9-36.4,69-40.2,178.2-28.8c438.9,44.1,897,212.7,1284.1,471.5c337.3,226.2,766.6,690,766.6,829.9C7341.2-1270.3,7224.3-1195.6,7145.7-1241.6z"/><path d="M7701.5-1607.7c-19.2-9.6-82.4-84.3-143.7-166.7c-530.9-709.1-1339.7-1173-2207.9-1266.9c-141.8-15.3-189.7-28.8-224.2-61.3c-74.7-70.9-57.5-178.3,32.6-216.6c105.4-44.1,571.1,28.8,927.6,143.8c243.4,80.5,714.9,320.1,929.6,471.5c381.4,274.1,881.6,824.1,881.6,973.6C7897-1626.8,7785.8-1557.8,7701.5-1607.7z"/><path d="M8197.9-1975.6c-23-24.9-93.9-116.9-157.2-207c-145.7-203.2-506-567.3-722.6-728.3c-251.1-185.9-540.5-354.6-812.6-471.5c-371.8-159.1-686.2-237.7-1220.9-302.8c-134.2-17.3-197.4-101.6-155.3-210.8c36.4-90.1,241.5-90.1,697.7,1.9c598,120.8,1169.1,383.3,1696.2,780.1c348.8,264.5,910.4,902.7,910.4,1035c0,67.1-78.6,147.6-143.7,147.6C8263.1-1931.6,8220.9-1952.7,8197.9-1975.6z"/></g></g>
</svg>